HIERARCHY
ROOT pelvis
{
	OFFSET 0.000000 0.000000 0.000000
	CHANNELS 6 Xposition Yposition Zposition Zrotation Xrotation Yrotation
	JOINT lfemur
	{
		OFFSET 11.446000 0.000000 0.000000
		CHANNELS 3 Zrotation Xrotation Yrotation
		JOINT ltibia
		{
			OFFSET 0.000000 -42.030400 0.000000
			CHANNELS 3 Zrotation Xrotation Yrotation
			JOINT lfoot
			{
				OFFSET 0.000000 -39.930200 0.000000
				CHANNELS 3 Zrotation Xrotation Yrotation
				JOINT ltoes
				{
					OFFSET 0.000000 0.000000 11.775800
					CHANNELS 3 Zrotation Xrotation Yrotation
					End Site
					{
					    OFFSET 0.000000 0.000000 5.000000
					}
				}
			}
		}
	}
	JOINT rfemur
	{
		OFFSET -11.446000 0.000000 0.000000
		CHANNELS 3 Zrotation Xrotation Yrotation
		JOINT rtibia
		{
			OFFSET 0.000000 -42.030400 0.000000
			CHANNELS 3 Zrotation Xrotation Yrotation
			JOINT rfoot
			{
				OFFSET 0.000000 -39.930200 0.000000
				CHANNELS 3 Zrotation Xrotation Yrotation
				JOINT rtoes
				{
					OFFSET 0.000000 0.000000 11.775800
					CHANNELS 3 Zrotation Xrotation Yrotation
					End Site
					{
					    OFFSET 0.000000 0.000000 5.000000
					}
				}
			}
		}
	}
	JOINT thorax
	{
		OFFSET 0.000000 11.255600 -5.000000
		CHANNELS 3 Zrotation Xrotation Yrotation
		JOINT head
		{
			OFFSET 0.000000 43.799300 0.000000
			CHANNELS 3 Zrotation Xrotation Yrotation
			End Site
			{
			    OFFSET 0.000000 5.000000 0.000000
			}
		}
		JOINT lclavicle
		{
			OFFSET 0.000000 39.863000 0.000000
			CHANNELS 3 Zrotation Xrotation Yrotation
			JOINT lhumerus
			{
				OFFSET 17.380600 4.958300 0.000000
				CHANNELS 3 Zrotation Xrotation Yrotation
				JOINT lradius
				{
					OFFSET 0.000000 -27.561300 0.000000
					CHANNELS 3 Zrotation Xrotation Yrotation
					JOINT lhand
					{
						OFFSET 0.000000 -26.933000 0.000000
						CHANNELS 3 Zrotation Xrotation Yrotation
						End Site
						{
						    OFFSET 0.000000 -5.000000 0.000000
						}
					}
				}
			}
		}
		JOINT rclavicle
		{
			OFFSET 0.000000 39.863000 0.000000
			CHANNELS 3 Zrotation Xrotation Yrotation
			JOINT rhumerus
			{
				OFFSET -17.380600 4.958300 0.000000
				CHANNELS 3 Zrotation Xrotation Yrotation
				JOINT rradius
				{
					OFFSET 0.000000 -27.561300 0.000000
					CHANNELS 3 Zrotation Xrotation Yrotation
					JOINT rhand
					{
						OFFSET 0.000000 -26.933000 0.000000
						CHANNELS 3 Zrotation Xrotation Yrotation
						End Site
						{
						    OFFSET 0.000000 -5.000000 0.000000
						}
					}
				}
			}
		}
	}
}
MOTION
Frames: 11
Frame Time:	0.0333333
145.258100 84.345600 2.202900 24.751417 5.643163 -81.059116 -4.530544 -28.223482 -3.971374 -0.000000 31.380313 0.000000 -0.000000 -10.321938 6.069295 0.000000 -1.441944 -0.000000 -1.597410 -51.937168 -9.193079 0.000000 38.534590 -0.000000 -0.000000 4.461777 -3.892134 -0.000000 -29.544771 -0.000000 -2.683979 20.445275 -1.901961 21.706335 10.060655 2.867119 -13.891086 -0.000000 0.626287 25.409986 -12.832725 -6.471515 0.000001 -35.914338 -42.436367 6.597022 -8.115656 -0.000000 23.220389 -0.000000 7.367801 -37.801616 -3.665827 -4.744581 -0.000000 -39.126388 27.106301 1.362985 -3.906195 -0.000000 
146.787100 84.630500 2.390000 26.084313 5.209086 -82.054583 -5.280298 -29.968251 -4.546906 -0.000000 30.721422 -0.000000 -0.000000 -9.522119 6.668317 -0.000000 -1.424947 -0.000000 -0.626723 -50.915445 -7.652735 -0.000000 42.339843 -0.000000 0.000000 0.954992 -4.777690 -0.000000 -29.538488 -0.000000 -3.803954 20.372636 -0.729235 22.207946 9.507207 1.988566 -14.795689 0.000000 0.803187 30.523684 -5.813135 4.257830 -0.000001 -29.278257 -43.593465 6.737152 -6.981282 -0.000000 22.502916 0.000000 7.554977 -37.053637 -5.303572 -2.659021 -0.000000 -41.128058 27.102587 1.043894 -3.799753 -0.000000 
147.915000 84.860900 2.498100 27.330207 4.637677 -83.101020 -5.661183 -31.621366 -3.914467 -0.000000 30.402097 -0.000000 -0.000000 -8.626907 6.478225 -0.000000 -1.436122 -0.000000 0.162643 -49.016970 -5.736644 0.000000 43.980290 0.000000 -0.000000 -1.656751 -5.035960 -0.000000 -29.541459 -0.000000 -5.124490 20.207007 0.425404 22.515044 8.836730 1.574285 -15.516408 -0.000000 1.471511 35.957543 1.073358 12.298727 -0.000002 -22.136461 -44.543930 7.221454 -6.507398 0.000000 22.028279 -0.000000 7.376582 -36.284774 -6.300440 -0.719603 -0.000001 -44.451059 26.637806 1.098684 -3.819752 0.000000 
148.706900 84.859800 2.668500 28.247921 4.301143 -83.664065 -6.413943 -32.821688 -4.876447 -0.000000 30.321637 0.000000 -0.000000 -8.638842 7.351220 -0.000000 -1.426497 -0.000000 0.332919 -46.972788 -4.684995 0.000000 45.537253 -0.000000 0.000000 -3.300374 -5.399817 0.000000 -29.541575 -0.000000 -5.947947 20.092540 1.125042 22.930774 7.988254 0.881678 -15.844600 -0.000000 2.220731 40.938515 8.111260 17.882513 0.000000 -16.045260 -46.177968 5.663292 -6.109358 0.000000 21.372465 -0.000000 7.241106 -35.510960 -6.468328 0.993611 -0.000001 -48.396471 25.362085 1.628428 -4.003247 0.000000 
149.118100 84.619000 2.869500 28.748975 3.888986 -84.277441 -7.304475 -33.812800 -6.153034 0.000000 31.244092 -0.000000 -0.000000 -9.283348 8.581062 -0.000000 -1.401726 -0.000000 0.171147 -45.073559 -4.074521 -0.000000 47.811542 0.000000 -0.000000 -4.519435 -5.967530 -0.000000 -29.540274 -0.000000 -6.724372 19.869795 1.748510 23.254266 7.419185 0.191617 -15.646966 -0.000000 3.135559 45.402897 14.324292 22.001758 0.000000 -9.666505 -49.214921 4.886370 -5.710129 -0.000000 20.858551 -0.000000 6.997304 -34.718739 -5.734620 2.574319 -0.000002 -52.814401 25.974539 1.046016 -3.805012 0.000000 
149.060900 84.277400 3.010300 28.808049 3.488882 -84.859787 -7.799950 -34.134975 -6.513157 -0.000000 32.296935 -0.000000 -0.000000 -10.388363 9.372869 -0.000000 -1.374115 0.000000 0.365693 -43.352546 -2.729809 -0.000000 50.409006 0.000000 -0.000000 -5.657242 -6.439807 0.000000 -29.533215 -0.000000 -7.444319 19.582146 2.432622 23.632265 7.323132 -0.426286 -14.898020 -0.000000 3.671139 48.986833 20.172465 25.933400 0.000000 -5.344823 -53.229526 4.564093 -4.261968 -0.000000 20.230228 -0.000000 6.331104 -33.392283 -4.826306 3.507021 0.000000 -56.511359 24.900089 1.483011 -3.953346 -0.000000 
148.636200 83.957000 3.127600 28.616228 3.111266 -85.057589 -8.329065 -33.623406 -6.993294 -0.000000 32.686430 -0.000000 -0.000000 -11.433867 10.124660 0.000000 -1.351008 -0.000000 0.368998 -42.167193 -1.869847 -0.000000 53.261601 0.000000 0.000000 -6.045904 -6.520947 -0.000000 -29.532525 0.000000 -8.084552 19.178424 2.695072 24.180508 7.462382 -1.016858 -13.776222 0.000000 3.797664 51.116316 26.277505 26.860402 0.000000 -5.225180 -55.641026 5.106333 -4.709815 0.000000 20.567568 0.000000 5.643998 -32.591759 -3.436031 4.061074 -0.000004 -59.202835 24.343180 1.050372 -3.809793 0.000000 
147.809400 83.675700 3.295900 28.271499 2.968034 -85.244998 -8.474334 -32.729480 -7.022353 -0.000000 32.994783 -0.000000 0.000000 -12.355226 10.536102 0.000000 -1.341234 -0.000000 0.820206 -41.787982 -0.690610 -0.000000 56.343181 -0.000000 0.000000 -6.029861 -6.608545 -0.000000 -29.535564 -0.000000 -8.253417 18.454378 2.410979 24.438704 8.154759 -1.380676 -12.639360 0.000000 3.360549 52.435094 30.667670 27.628045 -0.000000 -4.653797 -55.280940 4.898505 -4.152190 0.000000 20.839571 -0.000000 4.901559 -31.503516 -2.229594 4.575239 -0.000000 -59.474312 24.795057 0.812087 -3.729751 -0.000000 
146.574700 83.514000 3.493300 27.554409 3.249635 -85.348375 -8.013878 -31.093240 -6.863732 0.000000 32.952552 -0.000000 -0.000000 -13.127531 10.644633 -0.000000 -1.343126 0.000000 1.568358 -41.902637 -0.002321 -0.000000 58.803501 0.000000 -0.000000 -5.917760 -6.881214 -0.000000 -29.535414 0.000000 -7.625583 17.768225 1.841296 24.145384 9.434632 -1.207042 -12.385287 -0.000000 2.305552 53.221359 33.067601 27.618964 0.000000 -3.847343 -55.673117 4.971483 -3.028011 -0.000000 21.457957 -0.000000 4.293130 -30.915161 -0.610843 4.948219 -0.000003 -58.689171 24.981874 1.155029 -3.844277 0.000000 
144.966000 83.405600 3.771100 26.876887 3.392978 -85.602417 -7.547078 -28.784282 -6.427820 0.000000 32.003555 -0.000000 -0.000000 -13.809662 10.694984 -0.000000 -1.348836 -0.000000 1.835842 -42.963019 -0.554225 0.000000 60.406895 -0.000000 0.000000 -5.764656 -6.885734 -0.000000 -29.537241 -0.000000 -6.983093 17.228244 1.074191 23.779767 10.947143 -0.653652 -12.096463 -0.000000 1.658331 51.822476 32.915964 26.774728 -0.000000 -4.490839 -53.725532 6.412290 -3.083767 0.000000 21.880863 -0.000000 3.519070 -30.336391 0.535991 5.135586 -0.000000 -56.530111 25.154851 1.570842 -3.985243 -0.000000 
143.087500 83.280100 4.062100 26.199604 3.368345 -86.004647 -6.951964 -26.004381 -4.990185 -0.000000 30.417670 0.000000 -0.000000 -14.282463 10.077244 -0.000000 -1.356278 -0.000000 1.894175 -44.826937 -1.499425 -0.000000 60.669093 -0.000000 0.000000 -5.549237 -6.177578 -0.000000 -29.540820 -0.000000 -6.513529 16.456413 0.026611 23.111085 13.198009 0.257289 -12.368025 -0.000000 1.749516 49.803261 29.943951 24.742492 0.000000 -5.712724 -50.461709 6.888724 -3.604647 -0.000000 22.676987 0.000000 2.788077 -30.355866 1.941488 5.442038 -0.000001 -53.576287 25.675532 2.079579 -4.156099 -0.000000 
